#!OML:ASF X:\für Bonn\!DataBase\2005_08_10_Bjorn_Final\c3d\bjorn.ASF
:FULLY-SPECIFIED
:DEGREES
91
root -28.3635 18.3046 -21.4167 -1435.09 -12.1906 1.91475
lowerback -1.26576 -0.00731146 -4.37358
upperback 10.3663 0.624937 -3.66692
thorax 11.8605 0.0871517 -1.46383
lowerneck 0.660186 4.96477 2.80197
upperneck -0.11244 6.6335 -3.94448
head 0.0911047 3.3223 -1.68454
rclavicle -7.95139e-016 -6.36111e-015
rhumerus -38.6814 -15.418 -88.238
rradius 23.6274
rwrist 10.5714
rhand -11.225 14.6417
rfingers 7.12502
rthumb 14.8038 -14.8095
lclavicle -7.95139e-016 -6.36111e-015
lhumerus -25.1175 -25.6445 92.2458
lradius 75.0706
lwrist 8.21801
lhand -37.5423 -19.0353
lfingers 7.12502
lthumb -10.5978 10.6775
rfemur -32.1572 -1.37019 10.8167
rtibia 69.0857
rfoot -18.8044 18.6322
rtoes -26.1121
lfemur -4.90622 -9.38565 -28.8471
ltibia 35.4152
lfoot -28.4948 0.581304
ltoes -2.86471
92
root -28.3682 18.2744 -21.3254 -1435.2 -11.9821 1.90695
lowerback -0.855267 -0.0596393 -4.47066
upperback 10.4413 0.527236 -3.58834
thorax 11.695 0.026435 -1.33361
lowerneck 0.430397 5.17879 2.89715
upperneck -0.467663 6.90784 -4.19366
head 0.0422416 3.45996 -1.77759
rclavicle -1.70955e-014 7.15625e-015
rhumerus -39.1671 -14.4815 -88.3776
rradius 23.9382
rwrist 10.2479
rhand -11.2102 14.7604
rfingers 7.12502
rthumb 14.818 -14.6898
lclavicle -1.70955e-014 7.15625e-015
lhumerus -24.4739 -25.7355 92.124
lradius 76.7009
lwrist 7.84571
lhand -37.5448 -18.7255
lfingers 7.12502
lthumb -10.6002 10.9872
rfemur -33.1268 -1.46505 10.6701
rtibia 69.8941
rfoot -18.7385 18.341
rtoes -26.4263
lfemur -4.37196 -9.87127 -29.0624
ltibia 35.3661
lfoot -28.6235 1.04298
ltoes -3.3001
93
root -28.3735 18.2456 -21.2322 -1435.28 -11.7851 1.83403
lowerback -0.457647 -0.103325 -4.47737
upperback 10.5151 0.436637 -3.52076
thorax 11.5366 -0.0215275 -1.2642
lowerneck 0.15574 5.38818 3.00835
upperneck -0.797892 7.1749 -4.38375
head 0.00754247 3.59331 -1.8526
rclavicle 1.90833e-014 4.05521e-014
rhumerus -39.6416 -13.5089 -88.6141
rradius 24.3133
rwrist 9.81803
rhand -11.1492 14.9448
rfingers 7.12502
rthumb 14.8768 -14.5011
lclavicle 1.90833e-014 4.05521e-014
lhumerus -23.788 -25.8596 91.9494
lradius 78.304
lwrist 7.37583
lhand -37.6506 -18.6766
lfingers 7.12502
lthumb -10.7023 11.0308
rfemur -34.0991 -1.56626 10.5877
rtibia 70.5714
rfoot -18.4913 18.2753
rtoes -25.9697
lfemur -3.85037 -10.1784 -29.1629
ltibia 35.291
lfoot -28.7637 1.24311
ltoes -3.40846
94
root -28.3809 18.2197 -21.1364 -1435.21 -11.5744 1.62434
lowerback -0.193337 -0.165829 -4.3828
upperback 10.5585 0.317951 -3.39566
thorax 11.4235 -0.0770503 -1.1915
lowerneck -0.167468 5.61647 3.03762
upperneck -1.08237 7.46646 -4.52281
head -0.00827544 3.7382 -1.89411
rclavicle -1.63003e-014 -3.33958e-014
rhumerus -40.141 -12.3781 -88.9163
rradius 24.7566
rwrist 9.31984
rhand -11.1565 15.0819
rfingers 7.12502
rthumb 14.8697 -14.3645
lclavicle -1.63003e-014 -3.33958e-014
lhumerus -23.1085 -25.9612 91.776
lradius 79.9172
lwrist 6.81921
lhand -37.897 -18.8819
lfingers 7.12502
lthumb -10.9399 10.8131
rfemur -35.1877 -1.65519 10.6758
rtibia 71.129
rfoot -18.1553 18.2652
rtoes -25.2431
lfemur -3.47261 -10.3541 -29.0421
ltibia 35.1916
lfoot -28.9204 1.25915
ltoes -3.76199
95
root -28.3882 18.1964 -21.0363 -1435.14 -11.3482 1.41474
lowerback 0.0202687 -0.228968 -4.27387
upperback 10.6376 0.203191 -3.26468
thorax 11.3832 -0.130629 -1.12147
lowerneck -0.534247 5.82515 3.03387
upperneck -1.35844 7.7308 -4.66628
head -0.0159412 3.86914 -1.92936
rclavicle 2.38542e-015 7.95139e-015
rhumerus -40.6273 -11.2408 -89.2262
rradius 25.2767
rwrist 8.77439
rhand -11.0615 15.146
rfingers 7.12502
rthumb 14.9613 -14.2936
lclavicle 2.38542e-015 7.95139e-015
lhumerus -22.3554 -26.1025 91.5741
lradius 81.4942
lwrist 6.25948
lhand -38.2346 -19.269
lfingers 7.12502
lthumb -11.2656 10.4084
rfemur -36.2279 -1.79665 10.7506
rtibia 71.5612
rfoot -17.7021 18.3864
rtoes -24.1055
lfemur -3.05779 -10.4649 -28.8921
ltibia 35.0408
lfoot -29.0564 1.10267
ltoes -3.81658
96
root -28.3962 18.1747 -20.9329 -1435.08 -11.1274 1.20479
lowerback 0.202087 -0.289988 -4.14173
upperback 10.7336 0.0948961 -3.1505
thorax 11.3821 -0.178345 -1.08254
lowerneck -0.850977 6.04154 3.06485
upperneck -1.64729 8.0057 -4.81016
head -0.0338046 4.0059 -1.97202
rclavicle 1.19271e-015 3.02153e-014
rhumerus -41.0968 -10.1764 -89.547
rradius 25.8174
rwrist 8.33055
rhand -10.9564 15.1095
rfingers 7.12502
rthumb 15.0625 -14.3225
lclavicle 1.19271e-015 3.02153e-014
lhumerus -21.6016 -26.2622 91.3306
lradius 83.094
lwrist 5.66191
lhand -38.5793 -19.6253
lfingers 7.12502
lthumb -11.5979 10.0338
rfemur -37.2618 -1.92028 10.8192
rtibia 71.894
rfoot -17.225 18.5675
rtoes -22.7386
lfemur -2.59484 -10.5015 -28.7234
ltibia 34.8165
lfoot -29.1812 0.839591
ltoes -3.70008
97
root -28.4048 18.16 -20.8252 -1434.99 -10.8887 0.996039
lowerback 0.330534 -0.360138 -4.00774
upperback 10.843 -0.0216552 -3.03124
thorax 11.4293 -0.230612 -1.0409
lowerneck -1.16659 6.27326 3.0556
upperneck -1.94854 8.30067 -4.94919
head -0.0564316 4.1531 -2.00575
rclavicle 3.02153e-014 2.38542e-015
rhumerus -41.5349 -9.00142 -89.9346
rradius 26.4238
rwrist 7.69606
rhand -10.8593 15.0633
rfingers 7.12502
rthumb 15.156 -14.3617
lclavicle 3.02153e-014 2.38542e-015
lhumerus -20.7994 -26.4328 91.0588
lradius 84.629
lwrist 5.05234
lhand -38.9642 -19.7355
lfingers 7.12502
lthumb -11.9691 9.90226
rfemur -38.3421 -2.0975 10.906
rtibia 72.1124
rfoot -16.8362 18.6734
rtoes -21.9464
lfemur -2.1074 -10.4797 -28.5182
ltibia 34.493
lfoot -29.2467 0.524637
ltoes -3.82138
98
root -28.4141 18.1481 -20.7128 -1434.88 -10.6382 0.791155
lowerback 0.420133 -0.426396 -3.86214
upperback 10.9458 -0.130755 -2.91643
thorax 11.4927 -0.277785 -1.00999
lowerneck -1.46665 6.49425 3.05315
upperneck -2.22584 8.58204 -5.08238
head -0.0744801 4.29353 -2.03848
rclavicle -1.23246e-014 -3.89618e-014
rhumerus -41.9379 -7.94039 -90.3027
rradius 26.9954
rwrist 7.12255
rhand -10.8731 15.0439
rfingers 7.12502
rthumb 15.1428 -14.382
lclavicle -1.23246e-014 -3.89618e-014
lhumerus -19.9958 -26.6409 90.7746
lradius 86.1269
lwrist 4.43663
lhand -39.3879 -19.5743
lfingers 7.12502
lthumb -12.3776 10.0393
rfemur -39.455 -2.30485 10.9953
rtibia 72.233
rfoot -16.4868 18.8094
rtoes -21.3551
lfemur -1.57397 -10.4453 -28.2982
ltibia 34.0614
lfoot -29.2352 0.150561
ltoes -3.58961
